<?xml version="1.0" standalone="no"?><!DOCTYPE svg PUBLIC "-//W3C//DTD SVG 1.1//EN" "http://www.w3.org/Graphics/SVG/1.1/DTD/svg11.dtd"><svg t="1678713145169" class="icon" viewBox="0 0 1152 1024" version="1.1" xmlns="http://www.w3.org/2000/svg" p-id="14321" xmlns:xlink="http://www.w3.org/1999/xlink" width="54" height="48"><path d="M1056 128H96c-53.02 0-96 42.98-96 96v576c0 53.02 42.98 96 96 96h960c53.02 0 96-42.98 96-96V224c0-53.02-42.98-96-96-96z m16 672c0 8.822-7.178 16-16 16H96c-8.822 0-16-7.178-16-16V224c0-8.822 7.178-16 16-16h960c8.822 0 16 7.178 16 16v576zM340 540v-56c0-13.254-10.746-24-24-24h-56c-13.254 0-24 10.746-24 24v56c0 13.254 10.746 24 24 24h56c13.254 0 24-10.746 24-24z m192 0v-56c0-13.254-10.746-24-24-24h-56c-13.254 0-24 10.746-24 24v56c0 13.254 10.746 24 24 24h56c13.254 0 24-10.746 24-24z m192 0v-56c0-13.254-10.746-24-24-24h-56c-13.254 0-24 10.746-24 24v56c0 13.254 10.746 24 24 24h56c13.254 0 24-10.746 24-24z m192 0v-56c0-13.254-10.746-24-24-24h-56c-13.254 0-24 10.746-24 24v56c0 13.254 10.746 24 24 24h56c13.254 0 24-10.746 24-24zM244 704v-56c0-13.254-10.746-24-24-24h-56c-13.254 0-24 10.746-24 24v56c0 13.254 10.746 24 24 24h56c13.254 0 24-10.746 24-24z m768 0v-56c0-13.254-10.746-24-24-24h-56c-13.254 0-24 10.746-24 24v56c0 13.254 10.746 24 24 24h56c13.254 0 24-10.746 24-24zM244 376v-56c0-13.254-10.746-24-24-24h-56c-13.254 0-24 10.746-24 24v56c0 13.254 10.746 24 24 24h56c13.254 0 24-10.746 24-24z m192 0v-56c0-13.254-10.746-24-24-24h-56c-13.254 0-24 10.746-24 24v56c0 13.254 10.746 24 24 24h56c13.254 0 24-10.746 24-24z m192 0v-56c0-13.254-10.746-24-24-24h-56c-13.254 0-24 10.746-24 24v56c0 13.254 10.746 24 24 24h56c13.254 0 24-10.746 24-24z m192 0v-56c0-13.254-10.746-24-24-24h-56c-13.254 0-24 10.746-24 24v56c0 13.254 10.746 24 24 24h56c13.254 0 24-10.746 24-24z m192 0v-56c0-13.254-10.746-24-24-24h-56c-13.254 0-24 10.746-24 24v56c0 13.254 10.746 24 24 24h56c13.254 0 24-10.746 24-24zM816 692v-32c0-13.254-10.746-24-24-24H360c-13.254 0-24 10.746-24 24v32c0 13.254 10.746 24 24 24h432c13.254 0 24-10.746 24-24z" p-id="14322"></path></svg>